<svg width="307" height="261" viewBox="0 0 307 261" fill="none" xmlns="http://www.w3.org/2000/svg">
<path d="M57.6499 133.729C57.6499 133.729 62.9929 119.222 67.5244 108.122C72.0559 97.0209 54.9568 84.2312 57.3645 72.6262C59.7722 61.0213 84.5157 8.39589 84.5782 7.96111C84.6406 7.52633 141.752 29.2037 142.163 29.7986C142.575 30.3934 123.955 87.0007 120.848 94.7303C117.741 102.46 92.9064 104.391 88.2215 114.284C83.5367 124.176 78.5213 141.316 77.7202 141.595M57.6499 133.729C57.6499 133.729 19.4788 236.107 17.9789 241.481C16.4791 246.854 17.2998 251.829 22.0861 254.302C26.8724 256.775 31.9346 255.72 35.3088 249.441C38.6829 243.162 77.7202 141.595 77.7202 141.595M57.6499 133.729L77.7202 141.595M79.784 67.333C77.2843 64.1193 102.323 93.4095 100.219 91.2204M87.3428 48.7389C84.8431 45.5251 109.882 74.8154 107.778 72.6262M94.4291 29.7986C91.9295 26.5848 116.968 55.875 114.864 53.6859" stroke="white" stroke-width="9"/>
<path d="M163.286 120.43C166.949 120.43 169.79 121.439 171.811 123.458C173.958 125.351 174.905 127.938 174.652 131.22L165.749 244.611C165.496 248.144 164.234 250.921 161.96 252.94C159.813 254.959 156.972 255.969 153.436 255.969C149.9 255.969 147.121 254.959 145.101 252.94C143.206 250.921 142.322 248.144 142.449 244.611L142.638 242.15C139.607 246.567 135.566 250.037 130.514 252.561C125.463 255.085 119.906 256.347 113.844 256.347C106.014 256.347 99.0683 254.58 93.0064 251.047C87.0709 247.387 82.4613 242.213 79.1778 235.524C75.8943 228.709 74.2525 220.759 74.2525 211.672C74.2525 201.576 76.0837 192.616 79.7461 184.792C83.4085 176.967 88.5863 170.91 95.2796 166.619C101.973 162.202 109.677 159.993 118.391 159.993C124.958 159.993 130.704 161.318 135.629 163.969C140.681 166.619 144.659 170.405 147.563 175.327L150.973 130.841C151.226 127.686 152.489 125.162 154.762 123.269C157.035 121.376 159.877 120.43 163.286 120.43ZM121.232 237.985C128.809 237.985 134.745 235.146 139.039 229.467C143.333 223.661 145.48 215.837 145.48 205.993C145.48 196.907 143.522 190.029 139.607 185.36C135.692 180.564 130.009 178.166 122.558 178.166C114.854 178.166 108.793 181.069 104.372 186.874C100.079 192.553 97.9317 200.377 97.9317 210.347C97.9317 219.181 99.9523 225.996 103.994 230.792C108.035 235.587 113.781 237.985 121.232 237.985Z" fill="white"/>
<path d="M186.129 255.969C182.72 255.969 179.941 255.022 177.794 253.129C175.647 251.236 174.7 248.397 174.953 244.611L181.015 171.351C181.267 167.692 182.593 164.978 184.993 163.211C187.392 161.318 190.297 160.372 193.707 160.372C197.117 160.372 199.832 161.318 201.852 163.211C203.999 164.978 204.946 167.692 204.694 171.351L198.632 244.611C198.379 248.397 197.053 251.236 194.654 253.129C192.254 255.022 189.413 255.969 186.129 255.969ZM195.98 143.524C191.686 143.524 188.276 142.388 185.751 140.117C183.225 137.719 181.962 134.627 181.962 130.841C181.962 127.055 183.225 124.026 185.751 121.755C188.276 119.483 191.686 118.347 195.98 118.347C200.147 118.347 203.494 119.483 206.02 121.755C208.672 124.026 209.998 127.055 209.998 130.841C209.998 134.627 208.735 137.719 206.209 140.117C203.684 142.388 200.274 143.524 195.98 143.524Z" fill="white"/>
<path d="M294.847 120.43C298.509 120.43 301.35 121.439 303.371 123.458C305.518 125.351 306.465 127.938 306.213 131.22L297.309 244.611C297.057 248.144 295.794 250.921 293.521 252.94C291.374 254.959 288.532 255.969 284.996 255.969C281.46 255.969 278.682 254.959 276.661 252.94C274.767 250.921 273.883 248.144 274.009 244.611L274.198 242.15C271.167 246.567 267.126 250.037 262.075 252.561C257.023 255.085 251.466 256.347 245.404 256.347C237.574 256.347 230.629 254.58 224.567 251.047C218.631 247.387 214.022 242.213 210.738 235.524C207.455 228.709 205.813 220.759 205.813 211.672C205.813 201.576 207.644 192.616 211.306 184.792C214.969 176.967 220.147 170.91 226.84 166.619C233.533 162.202 241.237 159.993 249.951 159.993C256.518 159.993 262.264 161.318 267.189 163.969C272.241 166.619 276.219 170.405 279.124 175.327L282.533 130.841C282.786 127.686 284.049 125.162 286.322 123.269C288.595 121.376 291.437 120.43 294.847 120.43ZM252.792 237.985C260.37 237.985 266.305 235.146 270.599 229.467C274.893 223.661 277.04 215.837 277.04 205.993C277.04 196.907 275.082 190.029 271.167 185.36C267.252 180.564 261.569 178.166 254.118 178.166C246.415 178.166 240.353 181.069 235.933 186.874C231.639 192.553 229.492 200.377 229.492 210.347C229.492 219.181 231.513 225.996 235.554 230.792C239.595 235.587 245.341 237.985 252.792 237.985Z" fill="white"/>
</svg>
