<svg width="159" height="261" viewBox="0 0 159 261" fill="none" xmlns="http://www.w3.org/2000/svg">
<path d="M57.6499 133.729C57.6499 133.729 62.9929 119.222 67.5244 108.122C72.0559 97.0209 54.9568 84.2312 57.3645 72.6262C59.7722 61.0213 84.5157 8.39589 84.5782 7.96111C84.6406 7.52633 141.752 29.2037 142.163 29.7986C142.575 30.3934 123.955 87.0007 120.848 94.7303C117.741 102.46 92.9064 104.391 88.2215 114.284C83.5367 124.176 78.5213 141.316 77.7202 141.595M57.6499 133.729C57.6499 133.729 19.4788 236.107 17.9789 241.481C16.4791 246.854 17.2998 251.829 22.0861 254.302C26.8724 256.775 31.9346 255.72 35.3088 249.441C38.6829 243.162 77.7202 141.595 77.7202 141.595M57.6499 133.729L77.7202 141.595M79.784 67.333C77.2843 64.1193 102.323 93.4095 100.219 91.2204M87.3428 48.7389C84.8431 45.5251 109.882 74.8154 107.778 72.6262M94.4291 29.7986C91.9295 26.5848 116.968 55.875 114.864 53.6859" stroke="white" stroke-width="9"/>
</svg>
