<svg height="472pt" viewBox="-32 0 472 472.00187" width="472pt" xmlns="http://www.w3.org/2000/svg"><path d="m176 208h160v32h-160zm0 0" fill="#dd3e46"/><path d="m224 0h-144c-44.183594 0-80 35.816406-80 80v80c0 26.507812 21.492188 48 48 48h304c17.675781 0 32-14.328125 32-32v-16c0-88.367188-64-160-160-160zm32 96h-224v-16c0-26.507812 21.492188-48 48-48h144c17.675781 0 32 14.328125 32 32zm0 0" fill="#f98c96"/><g fill="#dd3e46"><path d="m32 128h80v16h-80zm0 0"/><path d="m32 160h80v16h-80zm0 0"/><path d="m352 160c0 8.835938-7.164062 16-16 16s-16-7.164062-16-16 7.164062-16 16-16 16 7.164062 16 16zm0 0"/><path d="m288 160c0 8.835938-7.164062 16-16 16s-16-7.164062-16-16 7.164062-16 16-16 16 7.164062 16 16zm0 0"/></g><path d="m223.921875 344h-7.921875v-64h16v-16h-16v-24h-16v24h-16v16h16v64h-8c-12.757812.453125-23.113281 10.464844-24 23.199219l-8 80.234375c-.507812 6.230468 1.625 12.390625 5.882812 16.972656 4.726563 4.929688 11.289063 7.679688 18.117188 7.59375h48c6.824219.078125 13.371094-2.671875 18.097656-7.59375 4.296875-4.648438 6.429688-10.898438 5.863282-17.207031l-8-79.765625c-.820313-12.820313-11.203126-22.941406-24.039063-23.433594zm-39.921875 112c-2.386719.085938-4.703125-.816406-6.398438-2.496094-1.171874-1.273437-1.753906-2.980468-1.601562-4.703125l8-80.234375c.253906-4.410156 3.617188-8.011718 8-8.566406h8v96zm54.402344-2.496094c-1.699219 1.679688-4.015625 2.582032-6.402344 2.496094h-16v-96h7.921875c4.488281.5625 7.921875 4.277344 8.117187 8.800781l8 79.765625c.191407 1.804688-.40625 3.605469-1.636718 4.9375zm0 0" fill="#98a1a1"/><path d="m343.9375 367.433594c-.820312-12.828125-11.21875-22.953125-24.066406-23.433594h-7.871094v-64h16v-16h-16v-24h-16v24h-16v16h16v64h-8c-12.757812.449219-23.117188 10.464844-24 23.199219l-8 80.234375c-.507812 6.230468 1.625 12.390625 5.882812 16.972656 4.726563 4.929688 11.289063 7.679688 18.117188 7.59375h48c6.816406.074219 13.363281-2.667969 18.089844-7.585938 4.28125-4.660156 6.398437-10.910156 5.832031-17.214843zm-63.9375 88.566406c-2.386719.085938-4.703125-.816406-6.398438-2.496094-1.191406-1.265625-1.792968-2.972656-1.65625-4.703125l8-80.242187c.257813-4.425782 3.652344-8.03125 8.054688-8.558594h8v96zm54.402344-2.496094c-1.699219 1.679688-4.015625 2.585938-6.402344 2.496094h-16v-96h7.914062c4.476563.574219 7.894532 4.289062 8.085938 8.800781l8 79.757813c.183594 1.8125-.421875 3.613281-1.664062 4.945312zm0 0" fill="#98a1a1"/><path d="m152 368h-16c0-37.96875 26.167969-48 40-48l.074219 16c-2.472657.046875-24.074219 1.328125-24.074219 32zm0 0" fill="#ffd782"/><path d="m120 368h-16c0-79.089844 71.28125-80 72-80v16c-2.253906 0-56 1.113281-56 64zm0 0" fill="#ffd782"/><path d="m376 368h-16c0-31.632812-23.023438-32-24-32v-16c13.832031 0 40 10.03125 40 48zm0 0" fill="#ffd782"/><path d="m408 368h-16c0-63.273438-53.710938-64-56-64v-16c.722656 0 72 .910156 72 80zm0 0" fill="#ffd782"/></svg>