<svg height="480pt" viewBox="-32 0 480 480.00187" width="480pt" xmlns="http://www.w3.org/2000/svg"><path d="m0 168c.0390625 30.910156 25.089844 55.960938 56 56h120v24c0 4.417969 3.582031 8 8 8h24v16h-16v16h16v64h-8c-12.757812.453125-23.113281 10.464844-24 23.199219l-8 80.234375c-.507812 6.230468 1.625 12.390625 5.882812 16.972656 4.726563 4.929688 11.289063 7.679688 18.117188 7.59375h48c6.824219.078125 13.371094-2.671875 18.097656-7.59375 4.296875-4.648438 6.429688-10.898438 5.863282-17.207031l-8-79.765625c-.820313-12.820313-11.203126-22.941406-24.039063-23.433594h-7.921875v-64h16v-16h-16v-16h80v16h-16v16h16v64h-8c-12.757812.449219-23.117188 10.464844-24 23.199219l-8 80.234375c-.507812 6.230468 1.625 12.390625 5.882812 16.972656 4.726563 4.929688 11.289063 7.679688 18.117188 7.59375h48c6.816406.074219 13.363281-2.667969 18.089844-7.585938 4.28125-4.660156 6.398437-10.910156 5.832031-17.214843l-8-79.765625c-.820313-12.824219-11.210937-22.945313-24.050781-23.433594h-7.871094v-64h16v-16h-16v-16h24c4.417969 0 8-3.582031 8-8v-24h8c22.082031-.027344 39.972656-17.917969 40-40v-16c0-97.34375-70.65625-168-168-168h-144c-48.578125.0585938-87.9414062 39.421875-88 88zm192 296c-2.386719.085938-4.703125-.816406-6.398438-2.496094-1.171874-1.273437-1.753906-2.980468-1.601562-4.703125l8-80.234375c.253906-4.410156 3.617188-8.011718 8-8.566406h8v96zm39.921875-96c4.488281.5625 7.921875 4.277344 8.117187 8.800781l8 79.765625c.203126 1.800782-.378906 3.597656-1.597656 4.9375-1.707031 1.691406-4.039062 2.59375-6.441406 2.496094h-16v-96zm56 96c-2.386719.085938-4.703125-.816406-6.402344-2.496094-1.1875-1.265625-1.789062-2.972656-1.65625-4.703125l8-80.242187c.265625-4.453125 3.703125-8.066406 8.136719-8.558594h8v96zm39.910156-96c4.511719.535156 7.96875 4.261719 8.167969 8.800781l8 79.757813c.1875 1.808594-.410156 3.613281-1.648438 4.945312-1.683593 1.667969-3.980468 2.570313-6.351562 2.496094h-16v-96zm8.167969-128h-144v-16h144zm-320-152c.046875-39.746094 32.253906-71.957031 72-72h144c88.082031 0 152 63.921875 152 152v16c0 13.253906-10.746094 24-24 24h-304c-22.078125-.027344-39.972656-17.917969-40-40zm0 0"/><path d="m40 112h224c4.417969 0 8-3.582031 8-8v-32c-.027344-22.082031-17.917969-39.972656-40-40h-144c-30.910156.039062-55.960938 25.089844-56 56v16c0 4.417969 3.582031 8 8 8zm8-24c.027344-22.082031 17.921875-39.972656 40-40h144c13.253906 0 24 10.746094 24 24v24h-208zm0 0"/><path d="m40 136h80v16h-80zm0 0"/><path d="m40 168h80v16h-80zm0 0"/><path d="m344 192c13.253906 0 24-10.746094 24-24s-10.746094-24-24-24-24 10.746094-24 24 10.746094 24 24 24zm0-32c4.417969 0 8 3.582031 8 8s-3.582031 8-8 8-8-3.582031-8-8 3.582031-8 8-8zm0 0"/><path d="m256 168c0 13.253906 10.746094 24 24 24s24-10.746094 24-24-10.746094-24-24-24-24 10.746094-24 24zm24-8c4.417969 0 8 3.582031 8 8s-3.582031 8-8 8-8-3.582031-8-8 3.582031-8 8-8zm0 0"/><path d="m184.074219 344-.074219-16c-13.832031 0-40 10.03125-40 48h16c0-30.671875 21.601562-31.953125 24.074219-32zm0 0"/><path d="m184 296c-.71875 0-72 .910156-72 80h16c0-62.886719 53.746094-64 56-64zm0 0"/><path d="m344 328v16c.976562 0 24 .367188 24 32h16c0-37.96875-26.167969-48-40-48zm0 0"/><path d="m416 376c0-79.089844-71.277344-80-72-80v16c2.289062 0 56 .726562 56 64zm0 0"/></svg>